<?xml version="1.0" standalone="no"?>
<!DOCTYPE svg PUBLIC "-//W3C//DTD SVG 20010904//EN" "http://www.w3.org/TR/2001/REC-SVG-20010904/DTD/svg10.dtd">
<svg xmlns="http://www.w3.org/2000/svg" version="1.0" width="1536.000000pt" height="1536.000000pt" viewBox="0 0 1536.000000 1536.000000" preserveAspectRatio="xMidYMid meet">
<metadata>
<meta name="Producer" content="Online-Convert"/></metadata>
<g transform="translate(0.000000,1536.000000) scale(0.100000,-0.100000)" fill="#000000" stroke="none">
<path d="M7470 13104 c-19 -2 -105 -8 -190 -14 -322 -23 -678 -84 -970 -166 -198 -56 -516 -164 -614 -208 -17 -8 -60 -27 -96 -41 -83 -35 -404 -195 -458 -229 -23 -14 -44 -26 -46 -26 -8 0 -177 -104 -285 -175 -89 -57 -305 -217 -421 -311 -108 -87 -314 -281 -450 -425 -144 -153 -196 -214 -333 -388 -70 -90 -81 -105 -190 -263 -281 -406 -536 -942 -672 -1413 -44 -153 -49 -172 -89 -347 -29 -123 -70 -373 -82 -493 -4 -38 -8 -79 -10 -90 -2 -11 -8 -105 -15 -210 -13 -228 -6 -635 16 -813 20 -163 54 -397 65 -442 5 -19 16 -71 25 -115 10 -44 28 -123 42 -175 14 -52 29 -108 33 -125 112 -448 391 -1054 674 -1469 116 -168 177 -250 298 -396 35 -42 239 -272 288 -324 69 -73 383 -353 475 -424 137 -104 261 -195 340 -246 133 -87 219 -142 235 -150 8 -4 24 -12 35 -19 156 -94 443 -238 630 -315 577 -238 1137 -359 1803 -392 490 -23 1134 52 1602 187 47 14 99 28 115 33 47 12 230 74 335 114 173 66 313 129 495 221 491 249 923 563 1311 950 213 213 312 325 474 535 28 36 55 71 61 78 21 26 221 327 240 362 11 19 24 42 29 50 5 8 23 38 39 66 197 347 346 690 450 1044 46 154 57 197 76 280 9 41 22 102 30 135 12 55 25 124 54 290 6 33 16 105 21 160 6 55 13 114 16 130 3 17 8 182 11 367 6 407 -9 610 -73 983 -23 132 -67 339 -89 415 -7 25 -21 74 -30 110 -102 375 -321 874 -543 1240 -131 215 -282 429 -440 620 -97 118 -484 510 -581 590 -30 25 -74 62 -97 82 -132 112 -443 329 -628 438 -256 151 -560 298 -811 392 -69 25 -136 48 -325 110 -19 6 -48 15 -65 19 -258 66 -326 83 -415 99 -263 50 -392 68 -602 86 -165 14 -624 26 -698 18z m731 -789 c403 -48 776 -135 1084 -253 28 -11 79 -31 115 -45 173 -67 432 -197 625 -314 123 -75 306 -198 372 -252 18 -14 69 -55 114 -91 217 -171 486 -441 663 -665 185 -235 350 -491 474 -740 79 -158 82 -165 151 -330 107 -259 202 -588 245 -855 33 -204 38 -240 51 -419 29 -370 13 -705 -51 -1086 -32 -192 -79 -377 -155 -605 -78 -238 -118 -334 -260 -626 -47 -97 -49 -105 -49 -187 0 -167 -64 -356 -165 -487 -113 -147 -261 -248 -447 -307 -50 -15 -72 -32 -160 -119 -136 -132 -349 -314 -482 -410 -87 -64 -351 -236 -424 -278 -84 -48 -318 -167 -402 -204 -341 -151 -807 -283 -1190 -336 -243 -33 -343 -40 -595 -40 -451 -1 -845 54 -1260 176 -109 32 -283 89 -330 108 -243 99 -406 173 -521 238 -38 22 -96 54 -129 72 -33 18 -98 58 -145 89 -47 30 -93 60 -102 66 -16 9 -118 81 -186 130 -181 131 -465 393 -651 599 -274 305 -523 687 -706 1086 -77 169 -130 309 -216 578 -17 54 -75 301 -93 397 -10 50 -21 113 -27 140 -5 28 -14 97 -20 155 -6 58 -13 121 -15 140 -3 19 -8 152 -10 295 -5 218 -2 296 15 483 12 122 26 244 31 270 5 26 16 85 25 132 22 112 44 215 60 270 7 25 20 74 30 110 158 585 547 1272 978 1727 99 104 272 274 347 339 135 120 381 303 503 377 38 23 81 49 96 58 162 101 421 232 606 306 219 89 457 164 670 213 262 60 506 97 730 111 193 11 651 2 806 -16z"/>
<path d="M9990 10803 c-31 -12 -52 -41 -182 -254 -73 -121 -140 -230 -148 -243 -14 -22 -71 -117 -95 -158 -5 -10 -70 -117 -143 -238 -73 -122 -142 -238 -154 -258 -11 -20 -111 -190 -223 -377 -112 -187 -211 -354 -221 -372 -11 -17 -35 -57 -54 -90 -19 -32 -40 -68 -46 -80 -66 -120 -219 -363 -227 -360 -11 3 -22 41 -52 187 -10 47 -23 110 -31 140 -7 30 -20 89 -29 130 -20 95 -41 191 -90 415 -20 90 -43 196 -60 278 -9 39 -22 99 -30 132 -8 33 -24 101 -35 150 -12 50 -25 101 -29 115 -5 14 -17 54 -26 90 -30 109 28 100 -635 100 l-578 0 -30 -25 c-16 -14 -48 -60 -71 -102 -40 -76 -75 -139 -139 -255 -18 -32 -46 -84 -63 -115 -18 -32 -51 -92 -74 -133 -23 -41 -57 -102 -75 -135 -18 -33 -52 -94 -75 -135 -23 -41 -57 -102 -75 -135 -18 -33 -52 -94 -75 -135 -23 -41 -57 -102 -75 -135 -18 -33 -52 -94 -75 -135 -23 -41 -53 -95 -67 -120 -145 -264 -165 -295 -169 -260 -1 6 -2 13 -3 18 -1 4 -6 27 -10 52 -4 25 -13 77 -21 115 -7 39 -21 111 -30 160 -9 50 -23 122 -31 160 -13 69 -27 137 -58 305 -19 99 -113 576 -126 635 -77 370 -76 367 -124 387 -23 9 -161 13 -537 16 -491 3 -506 3 -530 -16 -28 -24 -30 -66 -5 -190 8 -42 22 -115 31 -162 19 -107 53 -282 65 -335 5 -22 15 -78 24 -125 9 -47 29 -155 46 -240 16 -85 37 -193 46 -240 8 -47 19 -101 24 -120 5 -19 12 -57 15 -85 4 -27 13 -77 20 -110 7 -33 21 -100 30 -150 9 -49 23 -121 30 -160 8 -38 21 -110 30 -160 9 -49 23 -121 30 -160 7 -38 21 -110 30 -160 9 -49 20 -108 25 -130 5 -22 19 -92 30 -155 12 -63 33 -171 47 -240 14 -69 29 -143 34 -165 4 -22 14 -76 23 -120 51 -266 74 -357 97 -381 l22 -24 514 0 c454 0 517 2 538 16 19 12 299 466 389 629 9 17 21 37 26 45 18 27 220 372 220 375 0 2 27 49 60 104 33 56 60 103 60 106 0 2 27 50 60 105 33 55 60 102 60 104 0 3 33 62 73 133 41 70 85 148 99 173 80 144 131 231 139 235 4 3 12 -3 18 -12 8 -17 16 -47 56 -238 8 -33 20 -91 28 -130 9 -38 22 -104 31 -145 8 -41 25 -118 36 -170 25 -114 49 -228 60 -290 5 -25 18 -88 30 -140 12 -52 25 -117 30 -145 13 -71 38 -192 50 -246 l11 -47 -241 -403 c-132 -222 -245 -411 -250 -419 -6 -8 -13 -22 -17 -30 -4 -8 -87 -149 -185 -312 -98 -163 -178 -299 -178 -302 0 -2 -53 -94 -118 -203 -148 -249 -145 -242 -124 -284 37 -72 6 -68 617 -77 409 -6 558 -5 580 4 51 19 108 93 245 319 8 14 62 100 119 192 57 93 146 238 199 323 52 85 107 174 121 197 71 114 311 514 311 518 0 3 15 29 34 58 19 29 44 71 56 93 37 65 1737 2901 1814 3024 39 63 76 122 81 131 135 224 142 240 119 294 -7 18 -80 94 -167 176 -370 347 -541 505 -566 521 -25 17 -80 22 -111 11z"/>
<path d="M9598 6844 c-62 -40 -92 -95 -92 -167 1 -79 29 -137 86 -174 36 -24 52 -28 112 -28 60 0 78 5 113 28 58 37 83 89 83 172 0 78 -28 131 -90 170 -56 35 -158 35 -212 -1z"/>
<path d="M10615 6456 c-136 -29 -232 -81 -330 -181 -76 -77 -132 -170 -160 -269 -23 -79 -23 -241 -1 -322 49 -178 171 -326 336 -407 114 -56 197 -72 324 -64 153 10 278 64 392 170 78 73 140 162 168 242 67 187 43 389 -65 555 -139 215 -411 328 -664 276z m249 -336 c56 -23 132 -92 155 -140 22 -44 42 -120 37 -146 -2 -10 -6 -36 -10 -57 -14 -75 -80 -163 -156 -206 -49 -28 -129 -41 -189 -30 -77 15 -120 39 -177 102 -156 170 -80 418 151 494 50 16 129 9 189 -17z"/>
<path d="M9553 6333 c-10 -4 -13 -119 -13 -528 0 -508 1 -525 19 -535 11 -5 76 -10 144 -10 107 0 126 2 140 18 15 17 17 68 17 521 0 327 -4 509 -10 522 -10 17 -22 19 -148 18 -75 0 -143 -3 -149 -6z"/>
</g>
</svg>
