<?xml version="1.0" standalone="no"?>
<!DOCTYPE svg PUBLIC "-//W3C//DTD SVG 20010904//EN" "http://www.w3.org/TR/2001/REC-SVG-20010904/DTD/svg10.dtd">
<svg xmlns="http://www.w3.org/2000/svg" version="1.0" width="1000.000000pt" height="1000.000000pt" viewBox="0 0 1000.000000 1000.000000" preserveAspectRatio="xMidYMid meet">
<metadata>
Created by potrace 1.16, written by Peter Selinger 2001-2019
<meta name="Producer" content="Online-Convert"/></metadata>
<g transform="translate(0.000000,1000.000000) scale(0.100000,-0.100000)" fill="#000000" stroke="none">
<path d="M4750 9863 c0 -5 -41 -7 -91 -5 -56 2 -96 -1 -102 -7 -6 -6 -36 -11 -66 -12 -86 0 -194 -14 -198 -25 -2 -5 -21 -8 -43 -6 -22 2 -46 0 -53 -6 -6 -5 -45 -13 -84 -17 -40 -4 -73 -11 -73 -15 0 -5 -29 -12 -65 -15 -36 -4 -65 -11 -65 -15 0 -4 -38 -12 -85 -19 -47 -7 -88 -17 -90 -22 -3 -5 -28 -11 -55 -15 -28 -4 -50 -10 -50 -14 0 -5 -18 -11 -40 -15 -22 -4 -40 -10 -40 -15 0 -4 -29 -13 -65 -20 -36 -7 -65 -16 -65 -20 0 -4 -16 -11 -36 -15 -21 -3 -46 -12 -58 -20 -12 -7 -40 -16 -63 -20 -24 -4 -43 -11 -43 -15 0 -5 -13 -11 -30 -15 -16 -4 -30 -10 -30 -15 0 -4 -16 -11 -35 -14 -19 -4 -35 -11 -35 -17 0 -6 -4 -8 -9 -4 -5 3 -12 1 -15 -4 -3 -5 -22 -12 -41 -15 -19 -4 -35 -11 -35 -16 0 -4 -13 -11 -30 -15 -17 -4 -30 -11 -30 -16 0 -5 -3 -8 -7 -8 -13 3 -73 -25 -73 -33 0 -4 -6 -8 -12 -8 -21 0 -192 -89 -200 -104 -5 -8 -22 -17 -38 -21 -17 -4 -30 -11 -30 -16 0 -5 -7 -9 -15 -9 -7 0 -18 -8 -24 -17 -5 -10 -13 -18 -18 -17 -17 2 -43 -9 -43 -17 0 -5 -11 -14 -25 -19 -14 -5 -25 -14 -25 -19 0 -5 -13 -12 -30 -16 -17 -4 -30 -11 -30 -16 0 -6 -13 -15 -29 -20 -16 -6 -32 -17 -35 -25 -3 -8 -12 -14 -20 -14 -7 0 -16 -7 -20 -15 -3 -8 -10 -15 -16 -15 -14 0 -72 -41 -83 -57 -4 -7 -16 -13 -25 -13 -9 0 -23 -9 -30 -20 -7 -11 -18 -20 -26 -20 -7 0 -21 -9 -31 -20 -10 -11 -22 -20 -28 -20 -5 0 -18 -11 -29 -25 -11 -14 -24 -25 -29 -25 -6 0 -20 -11 -33 -25 -13 -14 -27 -25 -30 -25 -4 0 -29 -22 -54 -49 -26 -27 -51 -50 -57 -51 -11 -1 -375 -358 -375 -367 0 -7 -60 -78 -118 -140 -24 -25 -41 -47 -38 -50 3 -3 -6 -15 -20 -28 -13 -12 -24 -27 -24 -32 0 -5 -11 -20 -25 -33 -14 -13 -25 -29 -25 -35 0 -6 -11 -17 -24 -25 -14 -7 -27 -23 -30 -36 -4 -13 -15 -28 -26 -34 -11 -6 -20 -17 -20 -25 0 -8 -4 -15 -10 -15 -5 0 -16 -16 -25 -35 -9 -19 -23 -39 -31 -46 -8 -6 -14 -18 -14 -26 0 -7 -7 -16 -15 -19 -8 -4 -15 -12 -15 -19 0 -7 -6 -18 -14 -24 -8 -7 -18 -26 -21 -42 -4 -16 -11 -29 -16 -29 -5 0 -14 -10 -20 -22 -17 -37 -42 -81 -66 -114 -12 -17 -20 -34 -16 -38 3 -3 1 -6 -5 -6 -6 0 -13 -14 -17 -31 -4 -17 -13 -33 -21 -36 -8 -3 -14 -11 -14 -19 0 -8 -4 -14 -9 -14 -4 0 -14 -20 -21 -45 -7 -25 -16 -45 -20 -45 -4 0 -11 -11 -14 -25 -4 -14 -11 -25 -16 -25 -6 0 -10 -4 -10 -9 0 -5 -5 -22 -12 -38 -6 -15 -11 -31 -10 -35 1 -5 -2 -8 -7 -8 -5 0 -12 -13 -16 -30 -4 -16 -10 -30 -15 -30 -4 0 -11 -16 -14 -35 -4 -19 -11 -35 -15 -35 -8 0 -22 -32 -25 -56 -1 -6 -9 -22 -19 -37 -9 -14 -17 -32 -17 -39 0 -8 -7 -23 -15 -35 -9 -12 -14 -26 -13 -30 1 -7 -13 -46 -32 -83 -4 -9 -11 -31 -15 -50 -4 -19 -13 -44 -20 -55 -7 -11 -16 -39 -20 -62 -4 -24 -10 -43 -15 -43 -4 0 -10 -22 -14 -50 -4 -27 -10 -50 -15 -50 -4 0 -14 -38 -21 -85 -7 -47 -17 -85 -21 -85 -4 0 -11 -29 -14 -65 -4 -36 -11 -65 -15 -65 -4 0 -13 -53 -20 -117 -7 -65 -16 -120 -21 -123 -4 -3 -11 -53 -15 -110 -4 -58 -10 -107 -15 -110 -4 -3 -13 -129 -20 -281 -10 -218 -10 -336 0 -560 7 -156 16 -286 20 -289 5 -3 12 -53 16 -113 4 -59 10 -107 14 -107 4 0 13 -54 20 -120 7 -66 17 -120 21 -120 4 0 11 -29 15 -65 3 -36 10 -65 14 -65 4 0 14 -38 21 -85 7 -47 16 -85 20 -85 4 0 10 -21 14 -46 3 -26 10 -52 15 -58 4 -6 14 -40 21 -76 7 -36 16 -69 21 -75 4 -5 10 -27 14 -48 4 -20 11 -39 15 -42 5 -3 11 -23 15 -45 4 -22 11 -40 16 -40 6 0 8 -4 4 -9 -3 -5 -1 -12 4 -15 5 -3 12 -22 15 -41 4 -19 11 -35 16 -35 4 0 12 -15 15 -32 4 -18 11 -37 15 -43 22 -28 70 -128 70 -145 0 -11 5 -20 11 -20 5 0 7 -4 4 -10 -3 -5 -2 -10 4 -10 5 0 12 -14 16 -30 4 -17 10 -30 15 -30 5 0 11 -14 15 -30 4 -17 11 -30 15 -30 5 0 15 -18 21 -40 7 -22 16 -40 20 -40 4 0 10 -13 14 -29 3 -16 13 -32 21 -35 8 -3 14 -12 14 -21 0 -8 4 -15 10 -15 5 0 7 -7 4 -15 -4 -8 -1 -15 5 -15 6 0 11 -7 11 -15 0 -9 6 -18 14 -21 8 -3 18 -18 21 -34 3 -16 13 -34 21 -41 8 -6 14 -17 14 -24 0 -7 6 -15 14 -18 8 -3 17 -19 21 -35 3 -17 13 -33 21 -36 8 -3 14 -12 14 -21 0 -8 4 -15 8 -15 9 0 62 -76 62 -88 0 -4 9 -13 20 -20 11 -7 20 -19 20 -27 0 -8 9 -19 20 -25 11 -6 18 -15 16 -19 -3 -4 6 -18 19 -29 14 -12 25 -28 25 -35 0 -6 9 -18 20 -25 11 -7 20 -17 20 -23 0 -5 13 -24 30 -42 16 -18 30 -36 30 -40 0 -5 16 -23 35 -40 19 -17 35 -36 35 -42 0 -6 22 -33 50 -60 27 -27 50 -52 50 -56 0 -9 292 -300 297 -296 2 2 34 -25 71 -60 98 -93 132 -123 139 -123 5 0 56 -43 114 -96 9 -7 20 -14 25 -14 5 0 21 -13 35 -29 14 -15 35 -31 47 -35 12 -4 22 -12 22 -17 0 -5 6 -9 13 -9 8 0 22 -9 32 -20 10 -11 24 -20 31 -20 7 0 17 -6 21 -12 10 -15 61 -52 86 -61 9 -3 17 -11 17 -17 0 -5 7 -10 15 -10 9 0 18 -7 21 -15 4 -8 13 -15 20 -15 8 0 17 -7 20 -15 4 -8 12 -15 19 -15 6 0 23 -9 36 -21 13 -11 39 -28 59 -37 19 -9 37 -18 40 -21 15 -17 162 -91 180 -91 5 0 10 -4 10 -8 0 -4 16 -14 35 -21 19 -7 35 -16 35 -21 0 -4 16 -11 35 -14 19 -4 35 -11 35 -16 0 -4 13 -11 30 -15 16 -4 30 -11 30 -16 0 -6 5 -7 10 -4 6 3 10 2 10 -4 0 -6 16 -13 35 -17 19 -3 35 -10 35 -15 0 -4 17 -11 37 -15 21 -4 44 -13 51 -21 7 -7 31 -16 53 -19 21 -4 36 -10 33 -15 -3 -5 13 -12 36 -15 22 -4 40 -10 40 -15 0 -5 8 -9 18 -9 9 0 30 -7 46 -15 15 -8 32 -13 36 -10 5 3 11 1 14 -4 4 -5 24 -12 46 -16 22 -4 40 -10 40 -15 0 -5 18 -11 40 -15 22 -4 42 -11 46 -16 3 -5 16 -9 29 -9 13 0 26 -4 30 -9 3 -6 26 -13 50 -17 25 -3 47 -10 50 -14 3 -5 29 -11 58 -15 28 -4 57 -11 62 -16 6 -4 52 -14 103 -20 51 -7 92 -16 92 -20 0 -4 37 -10 83 -14 45 -4 87 -11 92 -16 6 -4 80 -14 165 -20 85 -7 158 -18 162 -23 11 -17 880 -15 885 2 3 7 22 12 46 12 65 0 261 22 272 30 6 4 42 11 80 15 39 4 75 10 80 15 6 4 50 13 100 19 49 7 94 16 100 21 5 4 30 11 55 15 25 4 50 11 55 15 6 4 26 11 45 14 33 7 64 18 101 36 9 5 33 12 53 15 20 4 36 11 36 15 0 5 18 11 40 15 22 4 42 11 46 16 3 5 10 7 15 3 5 -3 15 -1 22 4 7 5 27 13 45 17 17 3 32 10 32 15 0 4 20 11 45 14 25 4 45 11 45 16 0 4 23 14 50 21 28 7 50 16 50 20 0 5 16 11 35 15 19 3 35 10 35 14 0 5 14 11 30 15 17 4 30 11 30 16 0 6 5 7 10 4 6 -3 10 -1 10 4 0 6 9 11 21 11 18 0 97 37 109 51 3 3 23 12 45 19 22 7 42 16 45 19 8 10 41 29 100 57 30 15 58 33 62 40 4 6 20 15 34 18 15 4 32 12 40 19 32 29 40 33 52 29 6 -2 12 3 12 12 0 9 8 16 19 16 10 0 21 7 25 15 3 8 17 20 31 25 14 5 25 14 25 20 0 5 5 10 11 10 10 0 29 13 86 60 7 6 16 10 21 10 5 0 17 9 27 20 10 11 24 20 32 20 7 0 16 7 19 15 4 8 12 15 20 15 8 0 22 9 31 20 10 11 21 20 26 20 4 0 21 13 37 30 16 16 33 30 38 30 5 0 19 11 32 25 13 14 28 25 34 25 6 1 22 14 36 30 13 17 29 30 35 30 7 0 33 23 59 50 26 28 51 50 56 50 9 0 380 369 380 379 0 4 18 25 40 46 22 21 40 43 40 49 0 5 16 24 35 43 19 19 35 38 35 44 0 5 11 20 25 33 14 13 25 28 25 35 0 6 9 16 20 23 11 7 20 18 20 24 0 6 15 27 33 46 46 52 57 66 57 77 0 6 7 14 16 19 15 8 33 35 53 80 6 12 15 22 21 22 5 0 10 7 10 15 0 7 6 18 13 22 14 9 28 32 54 83 9 19 20 37 23 40 4 3 10 12 14 20 4 8 18 33 32 55 13 22 30 52 36 68 7 15 16 27 19 27 4 0 10 13 14 30 4 16 10 30 14 30 4 0 13 16 21 35 8 19 17 35 21 35 4 0 10 13 14 30 4 16 10 30 15 30 9 0 34 58 33 77 0 7 3 13 7 13 5 0 11 13 15 30 4 16 10 30 15 30 5 0 11 13 15 30 4 16 11 30 16 30 5 0 9 6 9 14 0 8 12 38 26 68 14 29 33 67 41 85 8 17 12 36 9 42 -4 6 -3 11 3 11 6 0 13 16 17 35 3 19 10 35 14 35 4 0 11 17 15 38 4 20 10 42 15 47 4 6 13 36 20 68 7 31 16 57 20 57 4 0 11 20 14 45 4 25 11 45 15 45 4 0 13 38 20 85 7 47 17 85 21 85 5 0 12 29 15 65 4 36 11 65 15 65 4 0 14 54 20 120 7 66 16 120 20 120 5 0 11 42 15 93 4 50 11 94 15 97 13 9 30 368 30 641 0 279 -16 630 -30 639 -4 3 -11 49 -15 103 -4 53 -10 97 -14 97 -4 0 -14 52 -21 115 -7 63 -16 115 -20 115 -4 0 -11 29 -15 65 -3 36 -10 65 -14 65 -4 0 -13 34 -20 75 -7 41 -16 77 -20 80 -5 2 -11 24 -15 47 -4 23 -11 47 -15 53 -5 5 -14 35 -21 65 -7 30 -16 60 -20 65 -5 6 -11 27 -15 48 -4 20 -11 37 -16 37 -4 0 -11 16 -15 35 -3 19 -10 35 -14 35 -4 0 -13 23 -20 50 -7 28 -16 50 -20 50 -4 0 -11 16 -14 35 -4 19 -11 35 -16 35 -6 0 -10 7 -10 15 0 8 -4 15 -10 15 -5 0 -10 9 -10 20 0 11 -9 37 -20 57 -11 21 -20 43 -20 49 0 6 -6 17 -14 23 -8 7 -18 26 -21 42 -4 16 -10 29 -15 29 -5 0 -11 14 -15 30 -4 17 -10 30 -14 30 -4 0 -14 18 -21 40 -7 22 -17 40 -21 40 -4 0 -10 13 -14 29 -3 16 -13 32 -21 35 -8 3 -14 12 -14 21 0 8 -4 15 -10 15 -5 0 -7 7 -4 15 4 8 1 15 -5 15 -6 0 -11 7 -11 15 0 9 -6 18 -14 21 -8 3 -18 18 -21 34 -3 16 -12 31 -20 33 -7 3 -16 19 -20 36 -4 17 -11 31 -16 31 -5 0 -14 10 -19 23 -10 23 -31 58 -40 67 -16 15 -60 80 -60 87 0 5 -9 15 -20 23 -11 8 -20 20 -20 27 0 7 -9 17 -20 23 -11 6 -18 15 -16 19 3 4 -6 19 -19 31 -14 13 -25 28 -25 34 0 6 -9 17 -20 24 -11 7 -20 17 -20 23 0 6 -13 24 -30 41 -16 16 -30 33 -30 37 0 4 -16 22 -35 41 -19 19 -35 39 -35 43 0 4 -20 28 -45 54 -25 25 -45 49 -45 53 0 10 -422 430 -433 430 -4 0 -24 17 -45 37 -20 21 -40 37 -43 36 -3 -1 -21 16 -39 37 -19 22 -39 40 -47 40 -7 0 -18 9 -25 20 -7 11 -18 20 -24 20 -6 0 -19 9 -29 20 -10 11 -24 20 -32 20 -7 0 -16 7 -19 15 -4 8 -14 15 -25 15 -10 0 -22 7 -27 16 -8 15 -35 33 -79 53 -13 6 -23 15 -23 20 0 9 -18 21 -80 53 -14 7 -27 15 -30 18 -14 14 -71 50 -80 50 -5 0 -10 5 -10 11 0 5 -4 8 -9 5 -5 -3 -14 1 -21 9 -7 8 -18 15 -25 15 -7 0 -15 7 -19 15 -3 8 -12 15 -21 15 -8 0 -15 3 -15 8 0 4 -19 16 -43 27 -23 11 -59 32 -80 47 -21 15 -51 30 -68 33 -16 4 -29 10 -29 15 0 5 -13 11 -30 15 -16 4 -30 11 -30 16 0 5 -3 8 -7 7 -8 -1 -28 7 -113 46 -25 11 -48 20 -52 18 -5 -1 -8 2 -8 8 0 5 -16 12 -35 16 -19 3 -35 10 -35 14 0 5 -15 12 -32 16 -18 3 -42 12 -53 19 -11 7 -39 16 -62 20 -24 4 -43 10 -43 15 0 4 -16 11 -35 14 -19 4 -35 10 -35 15 0 4 -31 14 -70 21 -38 7 -70 16 -70 20 0 4 -20 11 -45 14 -25 4 -45 11 -45 15 0 5 -22 11 -50 15 -27 4 -50 11 -50 15 0 5 -38 15 -85 22 -47 7 -85 15 -85 19 0 4 -28 10 -62 14 -34 3 -64 10 -68 15 -3 6 -40 13 -83 17 -42 4 -77 11 -77 15 0 5 -22 9 -48 9 -26 0 -52 4 -57 9 -6 6 -57 13 -115 17 -58 4 -110 11 -117 16 -6 5 -48 8 -92 7 -45 -1 -84 1 -88 5 -9 9 -563 8 -563 -1z m570 -802 c0 -4 57 -11 127 -15 70 -4 132 -11 138 -15 5 -5 48 -12 95 -16 47 -4 91 -11 97 -17 7 -6 24 -8 38 -6 14 3 25 2 25 -2 0 -4 29 -11 65 -15 36 -3 65 -10 65 -15 0 -4 24 -11 53 -15 28 -4 57 -11 64 -17 6 -5 39 -13 74 -19 35 -6 66 -14 69 -19 3 -4 22 -11 43 -15 20 -4 37 -11 37 -15 0 -4 20 -11 45 -14 25 -4 45 -12 45 -18 0 -6 9 -8 20 -5 10 3 20 1 22 -5 2 -5 10 -10 18 -12 8 -1 30 -10 47 -19 18 -10 36 -18 40 -18 9 -1 68 -27 150 -65 28 -13 57 -24 62 -24 6 0 11 -4 11 -9 0 -5 14 -12 30 -16 17 -4 30 -11 30 -16 0 -5 6 -9 12 -9 16 0 122 -53 126 -62 2 -5 9 -8 17 -8 7 0 18 -7 25 -15 7 -8 16 -12 21 -9 5 3 9 1 9 -4 0 -5 8 -13 18 -16 9 -4 35 -18 57 -31 22 -13 50 -29 63 -35 12 -5 22 -13 22 -17 0 -8 4 -11 77 -47 21 -11 42 -26 46 -33 4 -7 13 -13 19 -13 6 0 21 -11 34 -25 13 -14 28 -25 33 -25 6 0 16 -9 23 -20 7 -11 18 -20 25 -20 7 0 23 -10 36 -22 12 -13 25 -23 29 -23 3 0 23 -17 43 -37 20 -21 39 -38 43 -38 5 0 26 -18 47 -40 21 -22 42 -40 46 -40 4 0 85 -76 180 -170 95 -93 169 -170 165 -170 -4 0 16 -23 43 -51 28 -29 51 -57 51 -63 0 -6 14 -22 30 -36 17 -14 30 -30 30 -36 0 -6 9 -19 20 -29 11 -10 20 -23 20 -28 0 -5 11 -20 26 -33 14 -13 21 -24 17 -24 -4 -1 1 -8 12 -18 24 -20 60 -74 57 -84 -1 -4 7 -12 18 -18 11 -6 17 -16 14 -25 -4 -9 0 -15 9 -15 8 0 24 -20 36 -45 12 -25 27 -48 35 -51 7 -3 19 -20 26 -39 8 -19 17 -35 22 -35 4 0 8 -9 8 -19 0 -10 6 -21 14 -24 8 -3 17 -19 21 -36 4 -17 10 -31 15 -31 4 0 13 -12 19 -27 14 -34 43 -86 53 -93 3 -3 10 -18 13 -33 4 -15 11 -27 16 -27 5 0 8 -3 7 -7 -1 -5 4 -21 10 -36 7 -16 12 -35 12 -43 0 -8 4 -14 8 -14 8 0 36 -59 33 -72 0 -4 10 -28 23 -53 14 -25 28 -60 32 -77 3 -18 12 -42 19 -53 7 -11 16 -39 20 -62 4 -24 10 -43 15 -43 4 0 11 -17 15 -37 4 -21 10 -42 15 -48 4 -5 14 -37 21 -70 7 -33 16 -64 19 -70 4 -5 11 -26 14 -45 4 -19 11 -44 16 -55 5 -11 16 -56 24 -100 19 -104 26 -137 33 -155 3 -8 5 -27 4 -41 -1 -15 4 -33 11 -39 8 -8 12 -29 9 -58 -2 -25 2 -47 8 -51 6 -4 13 -64 17 -144 4 -75 11 -137 16 -137 4 0 8 -110 8 -245 0 -135 -4 -245 -8 -245 -5 0 -12 -68 -16 -152 -4 -83 -11 -156 -15 -162 -5 -6 -12 -38 -15 -71 -10 -98 -12 -115 -19 -122 -4 -3 -7 -23 -7 -44 0 -21 -5 -41 -11 -45 -6 -3 -9 -19 -7 -35 3 -16 1 -29 -2 -29 -4 0 -11 -24 -14 -52 -4 -29 -11 -57 -15 -63 -5 -5 -12 -27 -15 -49 -4 -21 -11 -46 -16 -55 -7 -13 -18 -50 -33 -116 -2 -5 -5 -14 -9 -20 -3 -5 -9 -26 -13 -45 -4 -19 -11 -39 -15 -45 -4 -5 -13 -36 -20 -68 -7 -31 -17 -57 -21 -57 -4 0 -11 -15 -14 -33 -4 -17 -14 -41 -21 -52 -8 -11 -14 -30 -14 -42 0 -13 -5 -23 -11 -23 -5 0 -7 -4 -4 -10 3 -5 2 -10 -4 -10 -5 0 -12 -14 -16 -30 -4 -17 -11 -30 -15 -30 -5 0 -12 -16 -16 -35 -3 -19 -9 -35 -13 -35 -4 0 -13 -16 -21 -35 -8 -19 -17 -35 -21 -35 -4 0 -10 -13 -14 -30 -4 -16 -10 -30 -14 -30 -5 0 -14 -20 -21 -45 -7 -25 -17 -45 -21 -45 -5 0 -9 -7 -9 -15 0 -9 -6 -18 -14 -21 -8 -3 -18 -19 -21 -36 -4 -16 -13 -32 -20 -34 -7 -3 -16 -17 -20 -32 -3 -14 -15 -32 -26 -40 -11 -7 -17 -17 -14 -22 3 -5 -3 -15 -15 -22 -11 -7 -20 -21 -20 -30 0 -10 -7 -18 -15 -18 -8 0 -15 -9 -15 -19 0 -10 -7 -22 -16 -25 -8 -3 -13 -10 -9 -15 3 -6 0 -13 -7 -18 -15 -9 -33 -37 -48 -70 -5 -13 -14 -23 -20 -23 -6 0 -13 -8 -17 -17 -4 -10 -18 -32 -32 -50 -14 -18 -34 -42 -43 -55 -36 -49 -73 -93 -80 -96 -5 -2 -8 -9 -8 -15 0 -6 -22 -33 -50 -59 -27 -26 -50 -51 -50 -55 0 -12 -263 -273 -275 -273 -5 0 -30 -22 -55 -50 -25 -27 -49 -50 -55 -50 -5 0 -21 -12 -34 -25 -13 -14 -28 -25 -33 -25 -6 0 -19 -11 -30 -25 -11 -14 -26 -25 -33 -25 -8 0 -19 -9 -25 -20 -6 -11 -17 -20 -24 -20 -7 0 -21 -9 -31 -20 -10 -11 -24 -20 -32 -20 -7 0 -13 -5 -13 -10 0 -6 -8 -14 -17 -17 -17 -6 -73 -42 -83 -54 -3 -3 -22 -14 -43 -25 -73 -36 -77 -39 -77 -46 0 -5 -7 -8 -15 -8 -7 0 -18 -7 -23 -16 -5 -9 -12 -16 -15 -15 -14 1 -42 -13 -50 -25 -4 -7 -21 -15 -37 -19 -17 -4 -30 -11 -30 -16 0 -5 -3 -8 -7 -8 -13 3 -73 -25 -73 -33 0 -4 -21 -17 -47 -29 -27 -12 -50 -25 -53 -28 -7 -10 -75 -41 -89 -41 -14 0 -95 -42 -99 -52 -2 -4 -14 -8 -27 -8 -13 0 -30 -6 -37 -13 -13 -13 -36 -21 -100 -34 -16 -3 -28 -9 -28 -13 0 -5 -18 -11 -40 -15 -22 -4 -40 -11 -40 -15 0 -5 -20 -12 -45 -16 -25 -3 -45 -10 -45 -14 0 -5 -9 -6 -20 -3 -11 3 -20 0 -20 -5 0 -6 -22 -14 -50 -18 -27 -4 -50 -10 -50 -14 0 -5 -22 -11 -50 -15 -27 -4 -52 -11 -55 -16 -3 -4 -12 -6 -20 -2 -9 3 -21 1 -28 -5 -7 -6 -40 -14 -75 -18 -34 -3 -62 -10 -62 -14 0 -5 -33 -11 -72 -15 -40 -4 -77 -11 -83 -15 -12 -9 -245 -30 -327 -30 -32 0 -58 -4 -58 -10 0 -6 -92 -10 -255 -10 -163 0 -255 4 -255 10 0 6 -24 10 -52 10 -79 0 -312 22 -323 30 -5 4 -43 11 -82 15 -40 4 -73 11 -73 15 0 4 -34 11 -75 15 -41 4 -75 11 -75 17 0 6 -11 8 -25 6 -14 -3 -25 -2 -25 2 0 5 -22 11 -50 15 -27 4 -50 10 -50 15 0 4 -25 11 -55 15 -30 3 -55 10 -55 14 0 5 -27 14 -60 21 -33 7 -60 17 -60 21 0 5 -10 9 -23 9 -12 0 -31 6 -42 14 -11 7 -44 19 -72 26 -29 6 -53 16 -53 21 0 4 -16 11 -35 15 -19 3 -35 10 -35 14 0 5 -13 11 -29 15 -16 3 -46 15 -67 26 -21 10 -46 19 -56 19 -10 0 -18 3 -18 8 0 4 -20 16 -45 27 -25 11 -45 24 -45 29 0 4 -7 6 -15 2 -8 -3 -15 -1 -15 4 0 6 -7 10 -15 10 -8 0 -15 4 -15 8 0 8 -60 36 -72 33 -5 0 -8 3 -8 8 0 5 -8 12 -17 15 -10 4 -36 18 -58 31 -22 14 -53 32 -70 40 -33 17 -67 37 -75 45 -3 3 -18 12 -35 20 -16 8 -32 17 -35 20 -12 12 -66 47 -82 53 -10 3 -18 11 -18 17 0 5 -6 10 -13 10 -8 0 -22 9 -32 20 -10 11 -24 20 -31 20 -7 0 -18 9 -24 20 -6 11 -17 20 -25 20 -7 0 -22 11 -33 25 -11 14 -24 25 -29 25 -10 0 -73 55 -143 125 -25 25 -50 45 -55 45 -6 0 -78 68 -160 150 -82 83 -147 150 -143 150 4 0 -14 22 -40 50 -83 87 -112 123 -112 134 0 6 -9 17 -20 24 -11 7 -20 18 -20 26 0 7 -9 21 -20 31 -11 10 -20 24 -20 31 0 7 -10 21 -22 31 -13 10 -32 35 -43 56 -11 20 -23 37 -27 37 -5 0 -8 7 -8 15 0 8 -9 19 -20 25 -11 6 -18 15 -15 21 4 5 -1 12 -9 15 -9 3 -16 12 -16 18 0 7 -8 21 -18 32 -10 10 -21 27 -25 37 -3 9 -11 17 -16 17 -6 0 -8 7 -5 15 4 8 1 15 -5 15 -6 0 -11 6 -11 14 0 8 -6 16 -14 19 -8 3 -17 19 -21 35 -3 17 -12 33 -20 35 -7 3 -16 19 -20 36 -4 17 -10 31 -15 31 -5 0 -11 13 -15 30 -4 16 -10 30 -14 30 -4 0 -13 18 -20 40 -6 22 -16 40 -21 40 -4 0 -11 13 -15 30 -4 16 -11 30 -15 30 -5 0 -12 16 -16 35 -3 19 -10 35 -14 35 -5 0 -14 23 -21 50 -7 27 -16 50 -20 50 -5 0 -11 16 -15 35 -3 19 -10 35 -14 35 -7 0 -10 10 -26 88 -3 17 -10 32 -14 32 -5 0 -11 18 -15 40 -4 22 -10 42 -14 45 -5 2 -14 38 -22 80 -7 41 -16 75 -20 75 -3 0 -9 23 -13 51 -4 28 -11 58 -16 67 -9 15 -30 120 -46 232 -3 19 -8 42 -11 50 -3 8 -5 27 -4 41 1 15 -4 33 -11 39 -8 8 -12 29 -9 58 2 25 -2 47 -7 51 -7 4 -14 72 -18 169 -4 89 -11 162 -16 162 -11 0 -11 427 1 434 4 3 11 72 15 153 4 83 12 151 18 154 6 4 9 27 7 51 -3 29 1 50 9 58 8 7 12 28 11 51 -2 21 0 41 4 45 4 4 7 18 7 31 0 13 4 31 9 41 5 9 15 55 21 102 6 47 15 90 20 95 4 6 11 28 15 50 4 22 11 46 17 52 6 7 8 22 5 33 -3 11 -2 20 3 20 6 0 15 28 21 68 0 4 4 12 9 17 4 6 11 27 15 48 4 20 11 37 15 37 5 0 11 19 15 43 4 23 13 51 20 63 8 12 17 37 20 58 4 20 11 36 16 36 5 0 9 6 9 13 0 6 7 25 15 41 8 15 12 32 9 37 -3 5 -1 9 5 9 5 0 12 14 16 30 4 17 10 30 15 30 5 0 11 14 15 30 4 17 11 30 16 30 6 0 7 5 4 10 -3 6 -2 10 4 10 5 0 12 14 16 30 4 17 10 30 15 30 5 0 11 14 15 30 4 17 10 30 15 30 5 0 11 14 15 31 4 17 13 33 20 36 8 2 17 18 20 34 4 16 11 29 16 29 5 0 9 7 9 15 0 9 7 18 16 22 8 3 13 12 10 19 -3 8 -1 14 4 14 6 0 10 7 10 15 0 9 6 18 14 21 8 3 17 16 20 30 4 13 11 24 16 24 6 0 10 7 10 15 0 9 7 18 15 21 8 4 15 13 15 20 0 8 7 17 15 20 8 4 15 10 15 14 0 13 53 90 62 90 4 0 8 6 8 13 0 8 9 22 20 32 11 10 20 22 20 28 0 5 11 18 25 29 14 11 25 24 25 30 0 10 41 61 110 136 16 18 30 36 30 41 0 13 312 321 325 321 3 0 47 37 96 83 50 45 95 84 101 86 7 2 23 17 36 32 13 16 28 29 33 29 6 0 20 11 33 25 13 13 25 22 28 19 4 -3 20 7 36 23 46 42 54 48 90 63 17 8 32 18 32 22 0 5 7 8 15 8 9 0 18 7 21 15 4 8 14 15 23 15 9 0 27 9 41 20 14 11 30 20 36 20 7 0 14 6 17 14 3 8 19 17 35 21 17 3 33 12 35 19 3 8 18 17 34 21 15 3 30 10 33 13 8 11 114 62 128 62 6 0 12 4 12 9 0 5 14 12 30 16 17 4 30 11 30 16 0 5 5 9 10 9 9 0 55 19 135 55 74 34 146 63 163 66 4 0 16 6 27 12 11 6 23 10 28 9 4 -1 7 2 7 7 0 6 20 13 45 17 25 3 45 10 45 15 0 4 23 11 50 15 28 4 50 10 50 14 0 5 32 14 70 21 39 7 70 16 70 20 0 4 27 10 60 14 33 4 60 11 60 15 0 5 27 12 60 16 33 4 63 10 66 15 2 4 11 6 19 2 9 -3 21 -1 28 5 6 6 49 13 95 17 45 4 82 11 82 15 0 4 59 11 130 15 72 4 130 11 130 16 0 5 142 9 325 9 179 0 325 -4 325 -9z"/>
<path d="M7290 7560 c0 -5 -9 -10 -20 -10 -21 0 -80 -55 -80 -75 0 -7 -7 -18 -15 -25 -8 -7 -20 -30 -27 -51 -6 -22 -15 -39 -20 -39 -9 0 -32 -49 -30 -62 1 -5 -2 -8 -8 -8 -6 0 -10 -7 -10 -15 0 -9 -6 -18 -14 -21 -8 -3 -18 -19 -21 -35 -4 -16 -11 -29 -17 -29 -6 0 -8 -6 -5 -14 3 -8 -1 -17 -9 -20 -8 -3 -14 -12 -14 -21 0 -8 -4 -15 -9 -15 -5 0 -12 -13 -16 -30 -4 -16 -10 -30 -14 -30 -4 0 -13 -16 -21 -35 -8 -19 -17 -35 -21 -35 -4 0 -10 -13 -14 -30 -4 -16 -10 -30 -15 -30 -4 0 -13 -12 -19 -27 -13 -32 -43 -86 -52 -93 -4 -3 -10 -16 -14 -30 -4 -14 -11 -27 -14 -30 -4 -3 -20 -31 -36 -62 -15 -32 -32 -58 -37 -58 -4 0 -8 -6 -8 -14 0 -8 -3 -16 -7 -18 -11 -4 -69 -121 -65 -131 1 -4 -5 -10 -13 -13 -8 -4 -15 -12 -15 -20 0 -8 -4 -14 -9 -14 -5 0 -12 -13 -16 -30 -4 -16 -11 -30 -16 -30 -5 0 -9 -5 -9 -11 0 -17 -53 -119 -62 -119 -4 0 -8 -5 -8 -12 0 -14 -50 -121 -60 -128 -4 -3 -13 -23 -20 -45 -7 -22 -19 -44 -26 -48 -8 -4 -14 -15 -14 -22 0 -8 -4 -15 -9 -15 -5 0 -12 -13 -16 -30 -4 -16 -11 -30 -16 -30 -6 0 -8 -4 -5 -9 3 -5 -1 -14 -9 -21 -8 -7 -15 -19 -15 -26 0 -8 -4 -14 -10 -14 -5 0 -10 -7 -10 -15 0 -7 -6 -18 -14 -22 -7 -4 -19 -25 -25 -45 -7 -20 -19 -42 -27 -48 -7 -7 -14 -19 -14 -26 0 -8 -4 -14 -8 -14 -5 0 -17 -19 -28 -42 -10 -24 -21 -45 -25 -48 -11 -8 -59 -102 -59 -116 0 -7 -3 -14 -7 -16 -10 -4 -63 -110 -63 -126 0 -6 -4 -12 -10 -12 -5 0 -12 -16 -16 -35 -3 -19 -10 -35 -15 -35 -5 0 -9 -5 -9 -12 0 -17 -54 -127 -62 -128 -5 0 -8 14 -8 30 0 17 -4 30 -9 30 -4 0 -14 47 -21 105 -7 58 -16 105 -20 105 -5 0 -11 32 -15 70 -4 39 -10 70 -15 70 -4 0 -13 47 -20 105 -6 58 -16 107 -20 110 -4 3 -11 36 -15 75 -4 38 -11 70 -15 70 -4 0 -11 32 -15 70 -4 39 -10 70 -14 70 -4 0 -5 16 -3 35 2 20 0 35 -6 35 -5 0 -13 32 -17 70 -4 39 -11 72 -15 75 -4 3 -11 36 -15 75 -4 38 -10 70 -15 70 -4 0 -5 11 -2 25 2 14 0 31 -6 38 -5 6 -13 41 -17 77 -4 36 -11 70 -15 75 -4 6 -13 53 -20 105 -7 52 -16 100 -20 105 -4 6 -11 29 -15 52 -13 82 18 78 -559 81 -511 3 -513 2 -540 -19 -25 -20 -86 -131 -86 -157 0 -7 -4 -12 -9 -12 -5 0 -12 -13 -16 -30 -4 -16 -10 -30 -14 -30 -4 0 -14 -18 -21 -40 -7 -22 -17 -40 -21 -40 -4 0 -10 -13 -14 -30 -4 -16 -10 -30 -14 -30 -4 0 -14 -18 -21 -40 -7 -22 -17 -40 -21 -40 -4 0 -10 -13 -14 -30 -4 -16 -10 -30 -14 -30 -4 0 -13 -18 -20 -40 -6 -22 -16 -40 -21 -40 -4 0 -11 -13 -15 -30 -4 -16 -11 -30 -16 -30 -5 0 -9 -4 -9 -9 0 -5 -5 -22 -12 -38 -6 -15 -11 -31 -10 -35 1 -5 -2 -8 -7 -8 -5 0 -12 -12 -16 -27 -3 -15 -10 -30 -13 -33 -4 -3 -18 -27 -32 -55 -14 -27 -29 -53 -34 -56 -5 -4 -6 -11 -2 -17 3 -5 -1 -13 -10 -16 -8 -3 -13 -10 -10 -15 4 -5 3 -11 -1 -13 -5 -1 -21 -28 -36 -59 -16 -32 -39 -71 -52 -89 -13 -18 -27 -45 -30 -61 -4 -16 -10 -29 -15 -29 -5 0 -11 -13 -15 -30 -4 -16 -10 -30 -14 -30 -5 0 -14 -20 -21 -45 -7 -25 -16 -45 -20 -45 -4 0 -11 -11 -14 -25 -4 -14 -10 -25 -15 -25 -5 0 -14 -20 -21 -45 -7 -25 -16 -45 -21 -45 -4 0 -10 -13 -14 -30 -4 -16 -10 -30 -15 -30 -8 0 -34 -59 -31 -72 0 -5 -3 -8 -8 -8 -5 0 -12 -12 -16 -27 -3 -15 -10 -30 -13 -33 -10 -7 -62 -113 -62 -127 0 -16 -30 -25 -35 -10 -2 6 -9 50 -15 97 -7 47 -15 90 -20 95 -4 6 -11 43 -15 83 -4 39 -11 74 -15 77 -4 3 -13 44 -20 92 -6 49 -15 97 -20 108 -5 11 -12 43 -15 70 -4 28 -10 55 -15 60 -4 6 -11 36 -14 67 -4 32 -12 60 -17 63 -5 4 -9 22 -9 41 0 19 -4 34 -9 34 -5 0 -12 32 -16 70 -4 39 -11 70 -15 70 -4 0 -13 52 -20 115 -7 63 -16 115 -20 115 -4 0 -11 32 -15 70 -4 39 -11 70 -15 70 -4 0 -11 29 -15 65 -3 36 -11 65 -16 65 -5 0 -9 12 -9 28 1 40 -22 152 -30 152 -4 0 -11 25 -15 55 -3 30 -10 55 -15 55 -4 0 -10 9 -13 20 -4 15 -14 20 -36 20 -17 0 -31 5 -31 10 0 6 -48 10 -125 10 -77 0 -125 -4 -125 -10 0 -6 -116 -10 -327 -10 l-327 0 -28 -27 c-24 -23 -28 -35 -28 -80 0 -29 4 -53 9 -53 4 0 11 -28 15 -62 3 -34 10 -64 15 -68 5 -3 13 -38 16 -78 4 -39 10 -72 14 -72 3 0 7 -12 8 -27 4 -54 26 -178 33 -183 4 -3 11 -34 15 -70 4 -36 10 -69 13 -74 3 -5 7 -21 8 -35 5 -54 25 -157 34 -176 5 -11 12 -42 15 -70 4 -27 10 -54 13 -60 4 -5 15 -57 25 -115 28 -167 29 -170 38 -176 5 -3 9 -21 9 -40 0 -19 4 -34 9 -34 4 0 6 -11 3 -25 -2 -14 0 -31 6 -38 5 -6 13 -40 17 -74 4 -35 11 -63 15 -63 4 0 11 -31 15 -70 4 -38 10 -70 14 -70 4 0 14 -45 21 -100 7 -55 17 -100 21 -100 4 0 10 -31 14 -70 4 -38 11 -70 15 -70 4 0 11 -32 15 -70 4 -39 10 -72 15 -75 4 -2 5 -16 2 -30 -2 -14 1 -31 7 -39 6 -7 14 -41 17 -75 4 -33 10 -61 14 -61 4 0 11 -29 15 -65 3 -36 10 -65 14 -65 4 0 14 -43 21 -96 8 -52 17 -97 21 -100 5 -2 11 -31 15 -64 4 -33 11 -60 15 -60 5 0 9 -14 9 -31 0 -42 21 -172 30 -184 4 -5 11 -31 14 -57 4 -27 11 -48 17 -48 5 0 9 -6 9 -12 0 -7 11 -23 24 -35 23 -22 30 -23 215 -23 121 0 191 -4 191 -10 0 -6 113 -10 320 -10 207 0 320 4 320 10 0 6 8 10 18 10 31 1 89 65 84 93 -1 4 3 7 8 7 6 0 10 7 10 15 0 9 6 18 14 21 8 3 17 17 21 32 4 15 10 29 13 32 4 3 21 33 37 67 17 35 33 63 37 63 3 0 9 14 13 30 4 17 11 30 16 30 5 0 8 3 7 8 -2 6 13 38 45 100 6 12 15 22 20 22 4 0 5 5 2 10 -3 6 -2 10 4 10 5 0 12 14 16 30 4 17 10 30 15 30 5 0 11 14 15 30 4 16 10 30 14 30 4 0 14 18 21 40 7 22 17 40 21 40 4 0 10 13 14 30 4 16 10 30 15 30 5 0 11 14 15 30 4 16 10 30 15 30 5 0 12 10 16 23 12 41 55 127 67 134 14 9 42 63 39 76 -1 4 2 7 7 7 8 0 24 37 22 53 -1 4 4 7 9 7 6 0 10 7 10 15 0 9 6 18 14 21 8 3 18 19 21 35 4 16 10 29 14 29 4 0 14 18 21 40 7 22 19 45 27 51 7 6 13 18 13 25 0 8 5 14 10 14 6 0 10 5 10 12 0 14 50 121 60 128 4 3 13 23 20 45 7 22 16 42 19 45 3 3 13 21 22 40 48 104 43 101 53 29 5 -35 12 -66 16 -69 4 -3 11 -33 15 -67 4 -35 11 -63 15 -63 4 0 8 -10 8 -22 0 -40 25 -168 33 -168 4 0 11 -29 14 -65 4 -36 11 -65 15 -65 4 0 13 -35 20 -77 6 -43 15 -82 20 -88 4 -5 10 -35 14 -65 4 -30 11 -59 15 -65 5 -5 14 -45 21 -88 7 -43 17 -80 21 -83 5 -3 9 -21 9 -40 0 -19 4 -34 9 -34 4 0 6 -11 4 -24 -3 -13 0 -27 6 -30 6 -4 11 -17 11 -30 0 -12 3 -26 7 -30 8 -7 12 -24 20 -76 3 -19 10 -38 15 -41 14 -9 15 -138 1 -147 -6 -4 -15 -20 -18 -35 -4 -15 -11 -27 -15 -27 -8 0 -23 -38 -21 -52 1 -5 -4 -8 -9 -8 -6 0 -10 -7 -10 -15 0 -9 -6 -18 -14 -21 -8 -3 -17 -17 -21 -32 -4 -15 -10 -29 -13 -32 -4 -3 -20 -30 -36 -60 -15 -30 -41 -77 -56 -105 -16 -27 -31 -62 -35 -77 -4 -16 -11 -28 -16 -28 -5 0 -9 -7 -9 -15 0 -9 -6 -18 -14 -21 -8 -3 -18 -19 -21 -35 -4 -16 -11 -29 -17 -29 -6 0 -8 -7 -4 -15 3 -8 1 -15 -4 -15 -4 0 -11 -13 -15 -29 -3 -16 -13 -32 -21 -35 -8 -3 -14 -12 -14 -21 0 -8 -4 -15 -8 -15 -5 0 -14 -18 -21 -40 -6 -22 -16 -40 -21 -40 -4 0 -11 -14 -15 -30 -4 -17 -10 -30 -14 -30 -4 0 -13 -16 -21 -35 -8 -19 -17 -35 -21 -35 -4 0 -10 -14 -14 -30 -4 -17 -10 -30 -15 -30 -5 0 -12 -10 -16 -22 -3 -12 -21 -44 -39 -72 -17 -28 -53 -94 -79 -146 -57 -113 -79 -153 -88 -160 -3 -3 -10 -18 -13 -33 -4 -15 -10 -27 -14 -27 -5 0 -14 -18 -21 -40 -7 -22 -17 -40 -22 -40 -4 0 -8 -6 -8 -13 0 -7 -9 -29 -20 -50 -29 -54 -28 -149 2 -179 l23 -23 560 0 560 0 33 29 c18 16 39 42 47 58 8 15 23 43 32 61 9 17 27 46 40 63 12 17 20 34 16 37 -3 4 -1 7 5 7 6 0 13 14 17 31 4 17 13 33 20 35 12 5 28 40 26 56 -1 5 3 8 8 8 5 0 12 14 16 31 4 17 13 33 21 36 8 3 14 11 14 19 0 8 4 14 8 14 5 0 14 17 20 39 7 21 19 44 27 51 8 7 15 19 15 26 0 8 4 14 8 14 5 0 14 17 20 39 7 21 19 44 27 51 8 7 15 19 15 26 0 8 5 14 10 14 6 0 10 6 10 12 0 19 52 118 62 118 4 0 8 6 8 14 0 8 7 22 16 31 9 9 14 19 11 22 -3 3 -1 11 6 19 30 34 37 44 43 68 3 14 10 26 14 26 5 0 11 14 15 30 4 17 16 35 27 41 11 6 17 13 14 16 -3 3 3 18 14 33 11 15 24 38 30 51 6 13 24 47 41 74 16 28 32 58 35 68 4 9 10 17 14 17 5 0 11 14 15 30 4 17 10 30 14 30 4 0 13 16 21 35 8 19 17 35 21 35 4 0 10 13 14 30 4 16 10 30 13 30 4 0 13 15 21 33 8 17 17 34 20 37 3 3 17 26 31 53 13 26 27 47 31 47 4 0 12 20 19 44 7 25 18 47 26 50 8 3 14 12 14 21 0 8 5 15 10 15 6 0 10 6 10 14 0 14 47 107 59 116 7 6 28 50 29 63 0 5 9 16 19 25 10 9 29 40 43 67 14 28 28 52 33 53 4 2 7 12 7 22 0 10 6 20 14 23 8 3 20 23 26 44 7 21 16 40 19 43 16 13 66 110 61 119 -1 2 2 7 7 10 10 7 29 37 45 71 7 14 17 28 22 31 5 4 6 11 2 17 -3 5 1 12 9 16 8 3 15 12 15 21 0 8 4 15 9 15 5 0 12 14 16 30 4 16 10 30 14 30 4 0 13 16 21 35 8 19 17 35 21 35 4 0 10 14 14 30 4 17 10 30 15 30 5 0 22 28 39 63 34 68 49 94 69 115 6 7 12 19 12 26 0 8 7 20 17 27 17 14 48 78 45 92 -1 4 2 7 6 7 4 0 14 16 21 35 7 19 17 35 22 35 5 0 9 7 9 15 0 8 4 15 9 15 5 0 12 11 15 24 3 14 12 31 19 38 12 13 38 61 109 198 18 36 36 67 39 70 4 3 10 16 14 30 4 14 10 27 14 30 10 8 41 63 52 93 6 15 15 27 19 27 4 0 11 11 14 25 4 14 11 25 17 25 6 0 7 5 4 10 -3 6 -2 10 4 10 5 0 12 14 16 30 4 17 11 30 16 30 5 0 9 7 9 15 0 9 7 18 15 21 8 4 15 10 15 16 0 18 51 118 61 118 5 0 9 4 9 10 0 5 18 40 41 76 42 70 63 114 61 127 -1 4 3 7 8 7 6 0 10 7 10 15 0 9 6 18 14 21 8 3 19 25 26 50 7 24 17 44 21 44 5 0 9 7 9 15 0 9 6 18 14 21 8 3 18 19 21 35 4 16 11 29 16 29 5 0 8 3 7 8 -2 7 21 53 31 62 3 3 19 31 35 63 16 31 32 57 36 57 4 0 11 16 14 35 4 19 11 35 16 35 6 0 10 27 10 60 l0 61 -71 69 c-39 39 -74 70 -77 70 -5 0 -82 69 -158 141 -23 21 -46 39 -51 39 -6 0 -35 24 -65 53 -31 28 -81 75 -112 102 -32 28 -75 66 -96 85 -50 46 -97 80 -110 80 -5 0 -10 5 -10 10 0 6 -13 10 -30 10 -16 0 -30 -4 -30 -10z"/>
</g>
</svg>
