<?xml version="1.0" standalone="no"?>
<!DOCTYPE svg PUBLIC "-//W3C//DTD SVG 20010904//EN" "http://www.w3.org/TR/2001/REC-SVG-20010904/DTD/svg10.dtd">
<svg xmlns="http://www.w3.org/2000/svg" version="1.0" width="1000.000000pt" height="1000.000000pt" viewBox="0 0 1000.000000 1000.000000" preserveAspectRatio="xMidYMid meet">
<metadata>
Created by potrace 1.16, written by Peter Selinger 2001-2019
<meta name="Producer" content="Online-Convert"/></metadata>
<g transform="translate(0.000000,1000.000000) scale(0.100000,-0.100000)" fill="#000000" stroke="none">
<path d="M4730 8519 c-284 -24 -512 -70 -765 -154 -859 -282 -1537 -857 -1954 -1657 -166 -317 -268 -616 -325 -948 -94 -546 -64 -1050 96 -1614 149 -529 499 -1086 924 -1470 264 -239 518 -418 782 -550 457 -230 920 -346 1442 -363 695 -22 1427 203 1999 614 609 438 1036 1003 1266 1675 60 175 91 297 125 503 42 250 54 421 47 688 -10 429 -78 777 -224 1142 -173 435 -415 804 -752 1149 -147 150 -253 242 -407 354 -465 338 -978 541 -1554 617 -148 20 -547 28 -700 14z m714 -558 c486 -76 949 -279 1336 -587 121 -96 381 -361 471 -479 223 -293 344 -521 454 -850 59 -176 95 -327 122 -510 22 -150 24 -555 4 -720 -39 -326 -131 -635 -271 -915 -239 -479 -569 -854 -995 -1133 -609 -397 -1316 -546 -2035 -426 -430 72 -882 263 -1232 521 -192 141 -403 345 -541 523 -242 311 -412 645 -502 988 -118 447 -134 906 -49 1366 58 314 213 687 403 972 126 189 204 283 365 444 171 170 319 290 486 395 381 237 762 369 1235 430 39 5 192 7 340 5 215 -2 298 -7 409 -24z"/>
<path d="M6584 6910 c-13 -5 -49 -56 -86 -122 -112 -194 -310 -553 -435 -788 -66 -124 -155 -286 -198 -360 -43 -74 -114 -209 -157 -299 -45 -93 -83 -160 -88 -155 -4 5 -64 290 -133 633 -98 491 -129 628 -143 638 -14 10 -95 13 -365 13 -310 0 -348 -2 -360 -16 -8 -10 -159 -303 -335 -653 -177 -350 -328 -636 -335 -636 -13 0 -45 143 -169 760 -73 363 -107 507 -125 531 -13 18 -31 19 -337 16 -345 -4 -358 -6 -358 -55 0 -28 255 -1275 371 -1817 90 -419 90 -420 112 -445 l22 -25 345 -6 c278 -4 350 -3 370 8 30 16 88 118 290 508 81 157 172 330 203 385 30 55 81 153 113 217 31 65 60 115 64 113 4 -3 13 -33 19 -67 7 -35 53 -234 103 -443 50 -209 97 -412 106 -451 l16 -72 -236 -438 c-351 -651 -388 -725 -388 -766 0 -64 -7 -63 411 -66 l377 -3 30 28 c16 15 135 219 265 453 241 437 704 1268 957 1720 513 915 640 1149 640 1182 0 40 -13 53 -285 289 -247 214 -237 207 -281 189z"/>
</g>
</svg>
